# xmcd
#
# Track frame offsets: 
#        150
#        20512
#        35812
#        55427
#        81997
#        103742
#        113760
#        131257
#        146080
#        161425
#        174530
#        198002
#
# Disc length: 2819 seconds
#
# Revision: 3
# Processed by: cddbd v1.4PL0 Copyright (c) Steve Scherf et al.
# Submitted via: ExactAudioCopy v0.90b4
#
DISCID=a20b010c
DTITLE=Blue Shadows - Lucky To Me
DYEAR=1995
DGENRE=Blues
TTITLE0=Don't Expect a Reply
TTITLE1=Lucky to Me
TTITLE2=(Born to Be) Riding Only Down
TTITLE3=Time's Out of Place
TTITLE4=Let the Cowboys Ride
TTITLE5=I Know
TTITLE6=Maybe in Time
TTITLE7=Tell Me
TTITLE8=Why Oh Why
TTITLE9=The Trouble With Trouble
TTITLE10=Look At It Rain
TTITLE11=Field of Gold
EXTD=
EXTT0=
EXTT1=
EXTT2=
EXTT3=
EXTT4=
EXTT5=
EXTT6=
EXTT7=
EXTT8=
EXTT9=
EXTT10=
EXTT11=
PLAYORDER=
